<svg width="24" height="24" viewBox="0 0 24 24" fill="none" xmlns="http://www.w3.org/2000/svg">
<path d="M17.3766 0H6.62295C2.97106 0 0 2.9712 0 6.62309V17.3768C0 21.0288 2.97106 23.9999 6.62295 23.9999H17.3766C21.0288 23.9999 23.9999 21.0287 23.9999 17.3768V6.62309C24 2.9712 21.0288 0 17.3766 0ZM21.8706 17.3768C21.8706 19.8547 19.8547 21.8705 17.3768 21.8705H6.62295C4.1452 21.8706 2.12938 19.8547 2.12938 17.3768V6.62309C2.12938 4.14534 4.1452 2.12938 6.62295 2.12938H17.3766C19.8545 2.12938 21.8705 4.14534 21.8705 6.62309V17.3768H21.8706Z" fill="black"/>
<path d="M12.0001 5.8161C8.59008 5.8161 5.81592 8.59026 5.81592 12.0003C5.81592 15.4101 8.59008 18.1841 12.0001 18.1841C15.4101 18.1841 18.1842 15.4101 18.1842 12.0003C18.1842 8.59026 15.4101 5.8161 12.0001 5.8161ZM12.0001 16.0546C9.76436 16.0546 7.9453 14.2358 7.9453 12.0001C7.9453 9.76426 9.76422 7.94534 12.0001 7.94534C14.2359 7.94534 16.0548 9.76426 16.0548 12.0001C16.0548 14.2358 14.2358 16.0546 12.0001 16.0546Z" fill="black"/>
<path d="M18.4434 4.0105C18.0331 4.0105 17.6301 4.17659 17.3404 4.46761C17.0492 4.7572 16.8818 5.16037 16.8818 5.57205C16.8818 5.98245 17.0493 6.38547 17.3404 6.67649C17.63 6.96608 18.0331 7.13359 18.4434 7.13359C18.8551 7.13359 19.2568 6.96608 19.5478 6.67649C19.8388 6.38547 20.0049 5.98231 20.0049 5.57205C20.0049 5.16037 19.8388 4.7572 19.5478 4.46761C19.2582 4.17659 18.8551 4.0105 18.4434 4.0105Z" fill="black"/>
</svg>
