<svg width="24" height="24" viewBox="0 0 24 24" fill="none" xmlns="http://www.w3.org/2000/svg">
<path d="M22.2276 0H1.77328C0.793849 0 0 0.769631 0 1.71955V22.2797C0 23.2297 0.794128 24 1.77328 24H22.2276C23.2068 24 23.9998 23.2292 23.9998 22.2797V1.71955C23.9998 0.76991 23.2068 0 22.2276 0ZM7.27605 20.0896H3.64985V9.25393H7.27605V20.0896ZM5.46331 7.77359H5.43893C4.22291 7.77359 3.43464 6.94196 3.43464 5.90082C3.43464 4.83869 4.24606 4.02961 5.48619 4.02961C6.72643 4.02961 7.48931 4.83847 7.51342 5.90082C7.51342 6.94219 6.72671 7.77359 5.46331 7.77359ZM20.3474 20.0896H16.7224V14.2922C16.7224 12.8354 16.1972 11.8414 14.8862 11.8414C13.8833 11.8414 13.288 12.512 13.0266 13.1594C12.9297 13.3907 12.9058 13.7141 12.9058 14.037V20.0894H9.2814C9.2814 20.0894 9.32883 10.27 9.2814 9.25376H12.9063V10.79C13.3875 10.0518 14.2474 8.99881 16.1724 8.99881C18.5584 8.99881 20.3474 10.5466 20.3474 13.8764V20.0896ZM12.8829 10.8244C12.8891 10.8142 12.8977 10.802 12.9063 10.7901V10.8244H12.8829Z" fill="black"/>
</svg>
